<?xml version="1.0" standalone="no"?><!DOCTYPE svg PUBLIC "-//W3C//DTD SVG 1.1//EN" "http://www.w3.org/Graphics/SVG/1.1/DTD/svg11.dtd"><svg t="1751436906204" class="icon" viewBox="0 0 1024 1024" version="1.1" xmlns="http://www.w3.org/2000/svg" p-id="2189" xmlns:xlink="http://www.w3.org/1999/xlink" width="200" height="200"><path d="M972.00000031 752L512 972.00000031 51.99999969 752l251.00000062-120L512 732.00000031l208.99999969-100.00000031L972.00000031 752z" fill="#00A6FF" p-id="2190"></path><path d="M720.99999969 632L512 732.00000031l-208.99999969-100.00000031L512 531.99999969l208.99999969 100.00000031z" fill="#00C7B1" p-id="2191"></path><path d="M721.20000031 392L512 492.00000031l-208.99999969-100.00000031L51.99999969 512l251.00000062 120L512 531.99999969l208.99999969 100.00000031L972.00000031 512l-250.8-120z" fill="#24F2DC" p-id="2192"></path><path d="M721.20000031 392L512 492.00000031l-208.99999969-100.00000031L512 291.99999969l209.20000031 100.00000031z" fill="#FFC247" p-id="2193"></path><path d="M972.00000031 272l-250.8 120L512 291.99999969l-208.99999969 100.00000031L51.99999969 272 512 51.99999969l460.00000031 220.00000031z" fill="#FFD747" p-id="2194"></path><path d="M796.14000031 210.06000031l17.25999938-36.10000031 47.28 22.60000031-17.25999938 36.12zM66.99999969 737l-5.58-11.65999969-18 8.61999938a19.99999969 19.99999969 0 0 0 0 36l18 8.62000031 5.58-11.65999969 11.68000031-5.58L74.16000031 752l4.51999969-9.42zM99.96000031 706.89999969l38.53999969-18.43999969 17.26000031 36.10000031-38.54000062 18.43999969zM408.24000031 559.41999969l38.53999969-18.42 17.26000031 36.10000031-38.54000062 18.42zM177.02 670.04l38.53999969-18.43999969 17.28 36.09999938-38.53999969 18.44000062zM521.42 558.68l17.26000031-36-18-8.62000031a20.11999969 20.11999969 0 0 0-17.28 0l-18 8.62000031 17.25999938 36 9.34000031-4.51999969zM791.19999969 687.68l17.24000062-36.10000031 38.53999969 18.42-17.26000031 36.10000031zM559.95999969 577.11999969l17.26000031-36.09999938 38.53999969 18.42-17.25999938 36.09999938zM868.23999969 724.56000031l17.26000031-36.10000031 38.53999969 18.42-17.25999938 36.12zM980.64000031 734l-18-8.62000031-5.58 11.66000062-11.68000031 5.58 4.51999969 9.42-4.51999969 9.42 11.68000031 5.58 5.58 11.65999969 18-8.62000031a19.99999969 19.99999969 0 0 0 0-36zM791.19999969 816.32l38.52-18.42 17.28 36.10000031-38.53999969 18.43999969zM637.02000031 890.04000031l38.53999969-18.44000062 17.28 36.10000031-38.53999969 18.43999969zM714.08 853.17999969l38.53999969-18.43999969 17.26000031 36.07999969-38.52 18.44000062zM868.23999969 779.42l38.54000062-18.43999969 17.28 36.09999938-38.54000062 18.44000062zM559.95999969 926.9l38.54000062-18.43999969 17.25999938 36.09999938-38.53999969 18.44000062zM512 949.83999969l-9.42-4.51999969-17.26000031 36 18 8.62000031a19.99999969 19.99999969 0 0 0 17.28 0l18-8.62000031-17.25999938-36zM99.96000031 797.12l17.25999938-36.12 38.54000062 18.43999969-17.26000031 36.10000031zM177.00000031 833.96l17.28-36.10000031 38.53999969 18.42-17.26000031 36.10000031zM254.10000031 870.8l17.25999938-36.07999969 38.54000062 18.43999969-17.26000031 36.07999969zM408.24000031 944.55999969l17.28-36.09999938 38.53999969 18.42-17.28 36.12zM331.20000031 907.68000031l17.25999938-36.10000031 38.54000062 18.42-17.26000031 36.12zM510.8 313.59999969l17.26000031-36.12 36.07999969 17.26000031-17.28 36.10000031zM366.42000031 339.44l36.12-17.26000031 17.25999938 36.08000062-36.12 17.28zM438.60000031 304.92000031l36.09999938-17.26000031 17.26000031 36.12-36.07999969 17.23999969zM582.96000031 348.09999969L600.24000031 312.00000031l36.07999969 17.25999938-17.28 36.08000062z" p-id="2195"></path><path d="M980.64000031 494L767.46000031 392l213.18-102a19.99999969 19.99999969 0 0 0 0-36l-80.00000062-38.26000031-17.28 36L925.65999969 272l-224.7 107.46 7.5-15.67999969-36-17.24000062-17.28 36 19.62 9.38000062L512 469.83999969l-165.36-79.08-16.27999969-33.99999938-27.46000031 13.11999938L98.34000031 272 512 74.16000031 754.34 189.99999969l17.26000031-36-250.96000031-120a20.11999969 20.11999969 0 0 0-17.28 0l-460.00000031 220.00000031a19.99999969 19.99999969 0 0 0 0 36L256.53999969 392l-45.9 22.00000031 17.36000062 36 75-35.86000031L503.36 510.00000031a19.99999969 19.99999969 0 0 0 17.28 0l200.46-95.86000031L925.65999969 512 675.99999969 631.38000031l16.78000031-35.08000031-38.53999969-18.42-17.26000031 36 37.69999969 18L512 709.83999969 349.28 632l37.69999969-18-17.25999938-36-38.54000062 18.42 16.78000031 35.08000031L98.34000031 512l87.75999938-42-17.25999938-36-125.48000062 60a19.99999969 19.99999969 0 0 0 0 36l213.20000062 102-2.46 1.18000031 17.28 36 31.51999969-15.08000062L503.36 750.00000031a19.99999969 19.99999969 0 0 0 17.28 0l200.46-95.88 31.54000031 15.09999938 17.28-36-2.48000062-1.21999969 213.20000062-102a19.99999969 19.99999969 0 0 0 0-36z" p-id="2196"></path></svg>