<?xml version="1.0" standalone="no"?><!DOCTYPE svg PUBLIC "-//W3C//DTD SVG 1.1//EN" "http://www.w3.org/Graphics/SVG/1.1/DTD/svg11.dtd"><svg t="1751438864551" class="icon" viewBox="0 0 1024 1024" version="1.1" xmlns="http://www.w3.org/2000/svg" p-id="8179" xmlns:xlink="http://www.w3.org/1999/xlink" width="200" height="200"><path d="M768 195.2l-256 256-256-256c-16-16-41.6-16-60.8 0s-16 41.6 0 60.8l256 256-256 256c-16 16-16 41.6 0 60.8 16 16 41.6 16 60.8 0l256-256 256 256c16 16 41.6 16 60.8 0 16-16 16-41.6 0-60.8l-256-256 256-256c16-16 16-41.6 0-60.8-16-16-41.6-16-60.8 0z" fill="#e6e6e6" p-id="8180" data-spm-anchor-id="a313x.search_index.0.i39.2e4a3a81iFPwHB" class="selected"></path></svg>