<?xml version="1.0" standalone="no"?><!DOCTYPE svg PUBLIC "-//W3C//DTD SVG 1.1//EN" "http://www.w3.org/Graphics/SVG/1.1/DTD/svg11.dtd"><svg t="1754626348254" class="icon" viewBox="0 0 1024 1024" version="1.1" xmlns="http://www.w3.org/2000/svg" p-id="6251" width="32" height="32" xmlns:xlink="http://www.w3.org/1999/xlink"><path d="M931.84 92.16H92.16c-51.2 0-92.16 51.2-92.16 102.4v634.88c0 51.2 40.96 92.16 92.16 92.16H921.6c51.2 0 92.16-40.96 92.16-92.16V194.56c10.24-51.2-30.72-102.4-81.92-102.4z m10.24 645.12l-204.8-266.24s-10.24-20.48-51.2-20.48c-51.2 0-61.44 20.48-61.44 20.48L450.56 737.28s-10.24 20.48-30.72 20.48c-20.48 0-40.96-20.48-40.96-20.48l-92.16-102.4s-20.48-30.72-51.2-30.72-51.2 30.72-51.2 30.72l-102.4 122.88V204.8c0-20.48 10.24-30.72 30.72-30.72h798.72c20.48 0 30.72 10.24 30.72 30.72v532.48zM460.8 389.12c0 61.44-51.2 112.64-112.64 112.64s-112.64-51.2-112.64-112.64c0-61.44 51.2-112.64 112.64-112.64 61.44-10.24 112.64 40.96 112.64 112.64z" fill="#1296db" p-id="6252"></path></svg>