<?xml version="1.0" standalone="no"?><!DOCTYPE svg PUBLIC "-//W3C//DTD SVG 1.1//EN" "http://www.w3.org/Graphics/SVG/1.1/DTD/svg11.dtd"><svg t="1754468729364" class="icon" viewBox="0 0 1024 1024" version="1.1" xmlns="http://www.w3.org/2000/svg" p-id="6720" xmlns:xlink="http://www.w3.org/1999/xlink" width="32" height="32"><path d="M71.210667 407.424a34.389333 34.389333 0 0 0 7.082666 0.725333 35.754667 35.754667 0 0 0 34.858667-28.544 244.693333 244.693333 0 0 1 46.592-101.290666A35.584 35.584 0 0 0 103.552 234.666667a316.586667 316.586667 0 0 0-60.16 130.858666 35.584 35.584 0 0 0 27.776 41.898667" p-id="6721" fill="#1296db"></path><path d="M234.666667 209.962667a34.602667 34.602667 0 0 0 14.933333-3.328 243.456 243.456 0 0 1 103.68-22.869334h6.314667a35.754667 35.754667 0 0 0 35.584-34.688 35.669333 35.669333 0 0 0-34.816-36.48h-7.04a313.258667 313.258667 0 0 0-133.76 29.568 35.584 35.584 0 0 0-17.066667 47.274667 35.882667 35.882667 0 0 0 32.341333 20.522667" p-id="6722" fill="#1296db"></path><path d="M116.906667 493.781333a35.584 35.584 0 0 0-65.194667-8.234666 34.858667 34.858667 0 0 0-3.370667 27.008 317.269333 317.269333 0 0 0 68.864 126.421333 34.986667 34.986667 0 0 0 24.533334 11.818667h2.005333a35.584 35.584 0 0 0 26.538667-59.264 244.778667 244.778667 0 0 1-53.376-97.749334" p-id="6723" fill="#1296db"></path><path d="M934.698667 840.277333H696.32l258.986667-281.984 6.4-7.722666a99.584 99.584 0 0 0-10.069334-130.688l-230.4-225.28-3.584-3.285334a98.773333 98.773333 0 0 0-66.005333-24.746666h-6.229333a98.645333 98.645333 0 0 0-68.266667 33.322666l-2.56 2.858667a317.226667 317.226667 0 0 0-74.709333-54.144 35.584 35.584 0 1 0-33.109334 63.018667 245.418667 245.418667 0 0 1 60.501334 44.544l-182.869334 206.890666a34.688 34.688 0 0 0-6.698666 5.845334 33.493333 33.493333 0 0 0-5.248 7.637333L217.6 606.592l-6.016 7.509333a98.986667 98.986667 0 0 0 10.496 128.768l152.789333 152.064 5.504 4.736a57.216 57.216 0 0 0 34.688 11.733334h519.637334a35.584 35.584 0 0 0 0-71.125334m-31.957334-329.941333l-210.816 229.546667-276.821333-249.045334 169.642667-192a36.181333 36.181333 0 0 0 16.213333-6.485333 35.797333 35.797333 0 0 0 14.592-28.373333l14.634667-16.341334 3.584-3.541333 4.522666-2.986667a28.458667 28.458667 0 0 1 31.829334 3.712l231.296 226.133334 3.925333 4.522666a28.16 28.16 0 0 1-2.56 35.072m-258.944 281.685334l-44.202667 48.042666h-178.773333l-147.968-147.242666c-6.656-19.626667-7.253333-33.28-1.792-39.424l96.853333-109.610667z" p-id="6724" fill="#1296db"></path></svg>